<?xml version="1.0" standalone="no"?><!DOCTYPE svg PUBLIC "-//W3C//DTD SVG 1.1//EN" "http://www.w3.org/Graphics/SVG/1.1/DTD/svg11.dtd"><svg t="1523353973721" class="icon" style="" viewBox="0 0 1024 1024" version="1.1" xmlns="http://www.w3.org/2000/svg" p-id="1480" xmlns:xlink="http://www.w3.org/1999/xlink" width="200" height="200"><defs><style type="text/css"></style></defs><path d="M490.666667 768v-128H298.666667c-46.933333 0-85.333333-38.4-85.333334-85.333333V298.666667c0-46.933333 38.4-85.333333 85.333334-85.333334h426.666666c46.933333 0 85.333333 38.4 85.333334 85.333334v106.666666c0 12.8-8.533333 21.333333-21.333334 21.333334s-21.333333-8.533333-21.333333-21.333334V298.666667c0-25.6-17.066667-42.666667-42.666667-42.666667H298.666667c-25.6 0-42.666667 17.066667-42.666667 42.666667v256c0 25.6 17.066667 42.666667 42.666667 42.666666h426.666666c25.6 0 42.666667-17.066667 42.666667-42.666666v-21.333334c0-12.8 8.533333-21.333333 21.333333-21.333333s21.333333 8.533333 21.333334 21.333333v21.333334c0 46.933333-38.4 85.333333-85.333334 85.333333h-192v128h128c12.8 0 21.333333 8.533333 21.333334 21.333333s-8.533333 21.333333-21.333334 21.333334h-298.666666c-12.8 0-21.333333-8.533333-21.333334-21.333334s8.533333-21.333333 21.333334-21.333333h128z" p-id="1481"></path></svg>