<?xml version="1.0" standalone="no"?><!DOCTYPE svg PUBLIC "-//W3C//DTD SVG 1.1//EN" "http://www.w3.org/Graphics/SVG/1.1/DTD/svg11.dtd"><svg t="1523354020219" class="icon" style="" viewBox="0 0 1024 1024" version="1.1" xmlns="http://www.w3.org/2000/svg" p-id="1609" xmlns:xlink="http://www.w3.org/1999/xlink" width="200" height="200"><defs><style type="text/css"></style></defs><path d="M704 708.266667c8.533333-8.533333 21.333333-8.533333 29.866667 0 8.533333 8.533333 8.533333 21.333333 0 29.866666-59.733333 59.733333-140.8 89.6-221.866667 89.6-174.933333 0-320-145.066667-320-320S337.066667 192 512 192s320 145.066667 320 320c0 29.866667-4.266667 64-12.8 89.6-4.266667 12.8-17.066667 17.066667-25.6 12.8-12.8-4.266667-17.066667-17.066667-12.8-25.6 8.533333-25.6 12.8-51.2 12.8-81.066667 0-153.6-123.733333-277.333333-277.333333-277.333333s-281.6 128-281.6 281.6 123.733333 277.333333 277.333333 277.333333c72.533333 0 140.8-29.866667 192-81.066666z" p-id="1610"></path><path d="M362.666667 234.666667c4.266667-12.8 12.8-17.066667 25.6-17.066667 12.8 4.266667 17.066667 12.8 17.066666 25.6l-25.6 102.4c0 4.266667-4.266667 8.533333-4.266666 8.533333l-42.666667 42.666667 17.066667 68.266667c4.266667 8.533333 0 17.066667-8.533334 25.6L221.866667 554.666667c-8.533333 4.266667-21.333333 4.266667-29.866667-8.533334-4.266667-8.533333-4.266667-21.333333 8.533333-29.866666l102.4-59.733334-12.8-59.733333c0-8.533333 0-17.066667 4.266667-21.333333l46.933333-42.666667 21.333334-98.133333zM324.266667 750.933333c-12.8 4.266667-25.6-4.266667-25.6-12.8-4.266667-12.8 4.266667-21.333333 17.066666-25.6l76.8-17.066666h8.533334l106.666666 29.866666c4.266667 0 8.533333 4.266667 8.533334 4.266667l55.466666 59.733333c8.533333 8.533333 8.533333 21.333333 0 29.866667-8.533333 8.533333-21.333333 8.533333-29.866666 0l-51.2-55.466667-93.866667-25.6-72.533333 12.8zM533.333333 349.866667V217.6c0-12.8 8.533333-21.333333 21.333334-21.333333s21.333333 8.533333 21.333333 21.333333v145.066667c0 4.266667-4.266667 12.8-8.533333 17.066666l-93.866667 76.8-4.266667 102.4 72.533334 64 72.533333-42.666666-42.666667-76.8c-4.266667-12.8 0-25.6 8.533334-29.866667l93.866666-38.4c8.533333-4.266667 17.066667 0 21.333334 4.266667l42.666666 38.4 55.466667-25.6c12.8-4.266667 21.333333 4.266667 25.6 12.8 4.266667 12.8-4.266667 21.333333-12.8 25.6l-64 29.866666c-8.533333 4.266667-17.066667 0-21.333333-4.266666l-42.666667-38.4-59.733333 25.6 42.666666 72.533333c4.266667 8.533333 0 21.333333-8.533333 29.866667l-102.4 59.733333c-8.533333 4.266667-17.066667 4.266667-25.6-4.266667l-93.866667-81.066666c-4.266667-4.266667-8.533333-12.8-8.533333-17.066667l12.8-123.733333c0-4.266667 4.266667-12.8 8.533333-12.8l89.6-76.8z" p-id="1611"></path></svg>