<?xml version="1.0" standalone="no"?><!DOCTYPE svg PUBLIC "-//W3C//DTD SVG 1.1//EN" "http://www.w3.org/Graphics/SVG/1.1/DTD/svg11.dtd"><svg t="1523354300713" class="icon" style="" viewBox="0 0 1024 1024" version="1.1" xmlns="http://www.w3.org/2000/svg" p-id="1997" xmlns:xlink="http://www.w3.org/1999/xlink" width="200" height="200"><defs><style type="text/css"></style></defs><path d="M405.333333 341.333333h213.333334c12.8 0 21.333333 8.533333 21.333333 21.333334s-8.533333 21.333333-21.333333 21.333333h-213.333334c-12.8 0-21.333333-8.533333-21.333333-21.333333s8.533333-21.333333 21.333333-21.333334z m0 128h213.333334c12.8 0 21.333333 8.533333 21.333333 21.333334s-8.533333 21.333333-21.333333 21.333333h-213.333334c-12.8 0-21.333333-8.533333-21.333333-21.333333s8.533333-21.333333 21.333333-21.333334z m0 128h128c12.8 0 21.333333 8.533333 21.333334 21.333334s-8.533333 21.333333-21.333334 21.333333h-128c-12.8 0-21.333333-8.533333-21.333333-21.333333s8.533333-21.333333 21.333333-21.333334z" p-id="1998"></path><path d="M640 789.333333c0-12.8 8.533333-21.333333 21.333333-21.333333h21.333334c25.6 0 42.666667-17.066667 42.666666-42.666667V298.666667c0-25.6-17.066667-42.666667-42.666666-42.666667H341.333333c-25.6 0-42.666667 17.066667-42.666666 42.666667v426.666666c0 25.6 17.066667 42.666667 42.666666 42.666667h192c12.8 0 21.333333 8.533333 21.333334 21.333333s-8.533333 21.333333-21.333334 21.333334H341.333333c-46.933333 0-85.333333-38.4-85.333333-85.333334V298.666667c0-46.933333 38.4-85.333333 85.333333-85.333334h341.333334c46.933333 0 85.333333 38.4 85.333333 85.333334v426.666666c0 46.933333-38.4 85.333333-85.333333 85.333334h-21.333334c-12.8 0-21.333333-8.533333-21.333333-21.333334z" p-id="1999"></path></svg>