<?xml version="1.0" standalone="no"?><!DOCTYPE svg PUBLIC "-//W3C//DTD SVG 1.1//EN" "http://www.w3.org/Graphics/SVG/1.1/DTD/svg11.dtd"><svg t="1523354179438" class="icon" style="" viewBox="0 0 1024 1024" version="1.1" xmlns="http://www.w3.org/2000/svg" p-id="1739" xmlns:xlink="http://www.w3.org/1999/xlink" width="200" height="200"><defs><style type="text/css"></style></defs><path d="M576 597.333333v85.333334c0 59.733333 46.933333 106.666667 106.666667 106.666666s106.666667-46.933333 106.666666-106.666666-46.933333-106.666667-106.666666-106.666667h-85.333334c-12.8 0-21.333333 8.533333-21.333333 21.333333z m-42.666667 85.333334v-106.666667c0-25.6 17.066667-42.666667 42.666667-42.666667H682.666667c81.066667 0 149.333333 68.266667 149.333333 149.333334s-68.266667 149.333333-149.333333 149.333333-149.333333-68.266667-149.333334-149.333333z m85.333334-192h-42.666667c-25.6 0-42.666667-17.066667-42.666667-42.666667V341.333333c0-81.066667 68.266667-149.333333 149.333334-149.333333s149.333333 68.266667 149.333333 149.333333-68.266667 149.333333-149.333333 149.333334v-42.666667c59.733333 0 106.666667-46.933333 106.666666-106.666667S742.4 234.666667 682.666667 234.666667 576 281.6 576 341.333333v85.333334c0 12.8 8.533333 21.333333 21.333333 21.333333h21.333334c12.8 0 21.333333 8.533333 21.333333 21.333333s-8.533333 21.333333-21.333333 21.333334z m-192 85.333333H341.333333c-59.733333 0-106.666667 46.933333-106.666666 106.666667s46.933333 106.666667 106.666666 106.666666 106.666667-46.933333 106.666667-106.666666v-85.333334c0-12.8-8.533333-21.333333-21.333333-21.333333z m-85.333334-42.666667h106.666667c25.6 0 42.666667 17.066667 42.666667 42.666667V682.666667c0 81.066667-68.266667 149.333333-149.333334 149.333333S192 763.733333 192 682.666667s68.266667-149.333333 149.333333-149.333334z m106.666667-106.666666V341.333333c0-59.733333-46.933333-106.666667-106.666667-106.666666S234.666667 281.6 234.666667 341.333333s46.933333 106.666667 106.666666 106.666667h85.333334c12.8 0 21.333333-8.533333 21.333333-21.333333z m42.666667-85.333334v106.666667c0 25.6-17.066667 42.666667-42.666667 42.666667H341.333333c-81.066667 0-149.333333-68.266667-149.333333-149.333334S260.266667 192 341.333333 192s149.333333 68.266667 149.333334 149.333333z m192 149.333334c-12.8 0-21.333333-8.533333-21.333334-21.333334s8.533333-21.333333 21.333334-21.333333 21.333333 8.533333 21.333333 21.333333-8.533333 21.333333-21.333333 21.333334z" p-id="1740"></path></svg>