<?xml version="1.0" standalone="no"?><!DOCTYPE svg PUBLIC "-//W3C//DTD SVG 1.1//EN" "http://www.w3.org/Graphics/SVG/1.1/DTD/svg11.dtd"><svg t="1523354316169" class="icon" style="" viewBox="0 0 1024 1024" version="1.1" xmlns="http://www.w3.org/2000/svg" p-id="2127" xmlns:xlink="http://www.w3.org/1999/xlink" width="200" height="200"><defs><style type="text/css"></style></defs><path d="M465.066667 648.533333l-72.533334 72.533334-12.8 12.8c-4.266667 4.266667-8.533333 4.266667-8.533333 4.266666-4.266667 0-8.533333 0-17.066667 4.266667l-89.6 8.533333c-25.6 4.266667-42.666667-17.066667-46.933333-38.4v-8.533333l8.533333-89.6c0-8.533333 0-12.8 4.266667-17.066667 0-4.266667 4.266667-8.533333 4.266667-8.533333l12.8-12.8 247.466666-247.466667c12.8-12.8 21.333333-17.066667 25.6-21.333333 8.533333-4.266667 17.066667-4.266667 21.333334 0 8.533333 4.266667 12.8 4.266667 25.6 21.333333L640 401.066667c12.8 12.8 17.066667 21.333333 21.333333 25.6 4.266667 8.533333 4.266667 17.066667 0 21.333333-4.266667 8.533333-4.266667 12.8-21.333333 25.6l-85.333333 85.333333c-8.533333 8.533333-21.333333 8.533333-29.866667 0-8.533333-8.533333-8.533333-21.333333 0-29.866666l81.066667-81.066667 8.533333-8.533333-8.533333-8.533334-72.533334-72.533333-8.533333-8.533333-8.533333 8.533333-247.466667 247.466667-4.266667 4.266666v8.533334L256 708.266667l89.6-8.533334h8.533333s4.266667 0 4.266667-4.266666l72.533333-72.533334c8.533333-8.533333 21.333333-8.533333 29.866667 0 12.8 4.266667 12.8 17.066667 4.266667 25.6zM738.133333 196.266667l29.866667 29.866666c34.133333 34.133333 34.133333 85.333333 0 119.466667l-29.866667 29.866667c-17.066667 17.066667-42.666667 17.066667-59.733333 0l-89.6-89.6c-17.066667-17.066667-17.066667-42.666667 0-59.733334l29.866667-29.866666c29.866667-34.133333 85.333333-34.133333 119.466666 0z m-29.866666 29.866666c-17.066667-17.066667-42.666667-17.066667-59.733334 0l-34.133333 29.866667 89.6 89.6 29.866667-29.866667c17.066667-17.066667 17.066667-42.666667 0-59.733333l-25.6-29.866667zM789.333333 853.333333h-554.666666c-12.8 0-21.333333-8.533333-21.333334-21.333333s8.533333-21.333333 21.333334-21.333333h554.666666c12.8 0 21.333333 8.533333 21.333334 21.333333s-8.533333 21.333333-21.333334 21.333333z" p-id="2128"></path></svg>